<svg width="348" height="372" viewBox="0 0 348 372" fill="none" xmlns="http://www.w3.org/2000/svg">
<path d="M171.5 370.593C171.157 369.975 169.682 365.505 168.222 360.66C158.968 329.954 141.789 298.861 113.021 260.748C102.213 246.429 92.0403 233.749 64.532 200.311C32.6807 161.593 23.5571 149.19 14.3441 132.083C8.90366 121.98 3.26568 106.609 1.41034 96.82C-0.443946 87.0367 -0.474173 71.0532 1.34585 62.7305C8.74913 28.8763 38.8206 3.33577 74.7788 0.361695C115.972 -3.04531 151.011 17.7641 169.422 56.5684L173.533 65.2335L176.628 58.3881C181.225 48.2167 185.653 41.3373 193.126 32.754C212.154 10.9003 234.8 0.195349 262.081 0.157899C274.301 0.141149 281.303 1.15538 291.716 4.45044C307.29 9.37855 319.014 17.0557 329.455 29.1636C356.665 60.7169 353.443 103.704 319.923 156.351C312.103 168.632 297.995 186.803 278.593 209.582C256.25 235.814 245.332 249.146 234.155 263.848C207.364 299.088 189.345 331.108 179.434 361.091C177.922 365.665 176.338 369.927 175.914 370.562C174.929 372.037 172.312 372.056 171.5 370.593Z" fill="#FF0000"/>
</svg>
